<svg width="10" height="10" viewBox="0 0 10 10" fill="none" xmlns="http://www.w3.org/2000/svg">
<path d="M4.75 9C5.59057 9 6.41226 8.75074 7.11117 8.28375C7.81008 7.81675 8.35482 7.15299 8.67649 6.37641C8.99816 5.59982 9.08232 4.74529 8.91834 3.92087C8.75435 3.09645 8.34958 2.33917 7.7552 1.7448C7.16083 1.15042 6.40355 0.745652 5.57913 0.581664C4.75471 0.417677 3.90018 0.501841 3.1236 0.823514C2.34701 1.14519 1.68325 1.68992 1.21625 2.38883C0.749258 3.08774 0.5 3.90943 0.5 4.75C0.5 5.45267 0.67 6.1152 0.972222 6.69886L0.5 9L2.80114 8.52778C3.38481 8.83 4.04781 9 4.75 9Z" stroke="#1DA1F2" stroke-linecap="round" stroke-linejoin="round"/>
</svg>
